<?xml version="1.0"?>
<svg xmlns="http://www.w3.org/2000/svg" xmlns:xlink="http://www.w3.org/1999/xlink" version="1.1" id="Capa_1" x="0px" y="0px" viewBox="0 0 455.731 455.731" style="enable-background:new 0 0 455.731 455.731;" xml:space="preserve" width="512px" height="512px" class=""><g><script xmlns="" id="tinyhippos-injected" class="active-path" style="fill:#6CCBBE" data-old_color="#000000"/><g>
	<path d="M217.947,179.593c-27.654-50.295-53.098-82.935-53.098-82.935c-40.088,19.289-69.979,56.404-79.386,101.065h0.009   C85.472,197.723,151.346,198.738,217.947,179.593z" data-original="#000000" class="active-path" data-old_color="#000000" fill="#6ccbbe"/>
	<path d="M324.394,118.984l0.009-0.009c-25.686-22.793-59.504-36.629-96.537-36.629c-11.662,0-23.009,1.375-33.88,3.971   c0,0,26.585,30.906,54.589,82.899C277.594,157.725,304.772,141.598,324.394,118.984z" data-original="#000000" class="active-path" data-old_color="#000000" fill="#6ccbbe"/>
	<path d="M139.648,343.611c24.482,18.679,55.047,29.774,88.218,29.774c19.712,0,38.516-3.917,55.658-11.033   c-5.481-38.381-16.99-75.837-30.789-109.951C204.47,267.379,164.139,300.414,139.648,343.611z" data-original="#000000" class="active-path" data-old_color="#000000" fill="#6ccbbe"/>
	<path d="M242.285,228.045c-3.773-8.302-7.637-16.343-11.509-24.078c-37.483,11.877-86.151,20.422-148.386,20.089h-0.009   c-0.027,1.267-0.045,2.534-0.045,3.809c0,37.492,14.177,71.668,37.465,97.471C147.33,279.732,190.697,244.765,242.285,228.045z" data-original="#000000" class="active-path" data-old_color="#000000" fill="#6ccbbe"/>
	<path d="M0,0v455.731h455.731V0H0z M227.866,400.357c-95.27,0-172.491-77.23-172.491-172.491S132.595,55.375,227.866,55.375   c95.261,0,172.491,77.23,172.491,172.491S323.127,400.357,227.866,400.357z" data-original="#000000" class="active-path" data-old_color="#000000" fill="#6ccbbe"/>
	<path d="M282.913,245.592c11.338,31.194,20.736,65.936,25.785,103.293c32.416-21.688,55.631-56.063,62.54-96.025   c-18.912-6.046-39.064-9.299-59.98-9.299C301.636,243.561,292.167,244.253,282.913,245.592z" data-original="#000000" class="active-path" data-old_color="#000000" fill="#6ccbbe"/>
	<path d="M341.024,136.387c0,0-21.437,31.328-80.356,56.53c4.214,8.742,8.382,17.933,12.407,27.537   c12.407-2.138,25.165-3.252,38.184-3.252c21.554,0,42.397,3.055,62.118,8.751c-0.44-33.925-12.488-65.047-32.344-89.574   L341.024,136.387z" data-original="#000000" class="active-path" data-old_color="#000000" fill="#6ccbbe"/>
</g></g> </svg>
